<svg width="14" height="14" viewBox="0 0 14 14" fill="none" xmlns="http://www.w3.org/2000/svg">
<path d="M5.63839 2.10938V2.34375H8.23905V2.10938C8.23905 1.79857 8.10205 1.5005 7.85819 1.28073C7.61433 1.06097 7.28359 0.9375 6.93872 0.9375C6.59385 0.9375 6.26311 1.06097 6.01925 1.28073C5.77539 1.5005 5.63839 1.79857 5.63839 2.10938ZM4.59813 2.34375V2.10938C4.59813 1.54993 4.84472 1.01341 5.28367 0.617822C5.72262 0.222237 6.31796 0 6.93872 0C7.55948 0 8.15482 0.222237 8.59377 0.617822C9.03272 1.01341 9.27931 1.54993 9.27931 2.10938V2.34375H13.1803C13.3183 2.34375 13.4506 2.39314 13.5481 2.48104C13.6456 2.56895 13.7004 2.68818 13.7004 2.8125C13.7004 2.93682 13.6456 3.05605 13.5481 3.14396C13.4506 3.23186 13.3183 3.28125 13.1803 3.28125H12.3959L11.4119 11.0475C11.3393 11.6195 11.0357 12.1473 10.5589 12.5305C10.0822 12.9137 9.46559 13.1253 8.8268 13.125H5.05064C4.41185 13.1253 3.79529 12.9137 3.31852 12.5305C2.84176 12.1473 2.53815 11.6195 2.46558 11.0475L1.48149 3.28125H0.697134C0.559186 3.28125 0.426889 3.23186 0.329345 3.14396C0.231801 3.05605 0.177002 2.93682 0.177002 2.8125C0.177002 2.68818 0.231801 2.56895 0.329345 2.48104C0.426889 2.39314 0.559186 2.34375 0.697134 2.34375H4.59813ZM3.49961 10.9406C3.54303 11.2837 3.72501 11.6004 4.01086 11.8303C4.2967 12.0603 4.66644 12.1874 5.0496 12.1875H8.82732C9.21048 12.1874 9.58022 12.0603 9.86607 11.8303C10.1519 11.6004 10.3339 11.2837 10.3773 10.9406L11.3494 3.28125H2.52852L3.49961 10.9406ZM5.37832 4.92188C5.51627 4.92188 5.64857 4.97126 5.74611 5.05917C5.84366 5.14708 5.89846 5.2663 5.89846 5.39062V10.0781C5.89846 10.2024 5.84366 10.3217 5.74611 10.4096C5.64857 10.4975 5.51627 10.5469 5.37832 10.5469C5.24038 10.5469 5.10808 10.4975 5.01053 10.4096C4.91299 10.3217 4.85819 10.2024 4.85819 10.0781V5.39062C4.85819 5.2663 4.91299 5.14708 5.01053 5.05917C5.10808 4.97126 5.24038 4.92188 5.37832 4.92188ZM9.01925 5.39062C9.01925 5.2663 8.96445 5.14708 8.86691 5.05917C8.76936 4.97126 8.63706 4.92188 8.49912 4.92188C8.36117 4.92188 8.22887 4.97126 8.13133 5.05917C8.03378 5.14708 7.97898 5.2663 7.97898 5.39062V10.0781C7.97898 10.2024 8.03378 10.3217 8.13133 10.4096C8.22887 10.4975 8.36117 10.5469 8.49912 10.5469C8.63706 10.5469 8.76936 10.4975 8.86691 10.4096C8.96445 10.3217 9.01925 10.2024 9.01925 10.0781V5.39062Z" fill="currentColor"/>
</svg>
