<svg width="17" height="21" viewBox="0 0 17 21" fill="none" xmlns="http://www.w3.org/2000/svg">
<g opacity="0.6">
<path d="M13.6354 10.9578H12.7263H11.5142V18.2466V19.1578V20.0688H13.6354C14.1374 20.0688 14.5445 19.6608 14.5445 19.1577V10.9578H13.6354Z" fill="currentColor"/>
<path d="M6.66602 10.9578V18.2466V19.1577V20.0688H9.69632V19.1577V18.2466V10.9578H6.66602Z" fill="currentColor"/>
<path d="M3.63603 10.9578H2.72693H1.81787V19.1578C1.81787 19.6609 2.2249 20.0689 2.72697 20.0689H4.84818V19.1578V18.2466V10.9578H3.63603Z" fill="currentColor"/>
<path d="M15.4545 7.3133H14.5454V4.57998C14.5454 4.07679 14.1384 3.66886 13.6363 3.66886H12.1212V0.935534C12.1212 0.432349 11.7142 0.0244141 11.2121 0.0244141H5.15151C4.64944 0.0244141 4.24241 0.432349 4.24241 0.935534V3.66886H2.72726C2.22519 3.66886 1.81816 4.07679 1.81816 4.57998V7.3133H0.9091C0.407031 7.3133 0 7.72115 0 8.22442C0 8.72752 0.407031 9.13554 0.9091 9.13554H1.8182H2.7273H3.6364H4.84851H6.66667H9.69697H11.5151H12.7272H13.6363H14.5454H15.4545C15.9566 9.13554 16.3636 8.72752 16.3636 8.22442C16.3636 7.72115 15.9566 7.3133 15.4545 7.3133ZM10.303 3.66886H6.06061V1.84661H10.303V3.66886Z" fill="currentColor"/>
</g>
</svg>
