<svg width="12" height="15" viewBox="0 0 12 15" fill="none" xmlns="http://www.w3.org/2000/svg">
<path d="M5.87816 9.01086C5.68955 9.01086 5.52976 8.93546 5.39879 8.78468C5.26781 8.6339 5.20232 8.44994 5.20232 8.23281C5.20232 8.01568 5.26781 7.83173 5.39879 7.68094C5.52976 7.53016 5.68955 7.45477 5.87816 7.45477C6.06676 7.45477 6.22655 7.53016 6.35752 7.68094C6.4885 7.83173 6.55399 8.01568 6.55399 8.23281C6.55399 8.44994 6.4885 8.6339 6.35752 8.78468C6.22655 8.93546 6.06676 9.01086 5.87816 9.01086ZM3.36344 9.01086C3.17483 9.01086 3.01504 8.93546 2.88407 8.78468C2.75309 8.6339 2.68761 8.44994 2.68761 8.23281C2.68761 8.01568 2.75309 7.83173 2.88407 7.68094C3.01504 7.53016 3.17483 7.45477 3.36344 7.45477C3.55204 7.45477 3.71183 7.53016 3.84281 7.68094C3.97378 7.83173 4.03927 8.01568 4.03927 8.23281C4.03927 8.44994 3.97378 8.6339 3.84281 8.78468C3.71183 8.93546 3.55204 9.01086 3.36344 9.01086ZM8.39288 9.01086C8.20427 9.01086 8.04448 8.93546 7.91351 8.78468C7.78253 8.6339 7.71704 8.44994 7.71704 8.23281C7.71704 8.01568 7.78253 7.83173 7.91351 7.68094C8.04448 7.53016 8.20427 7.45477 8.39288 7.45477C8.58148 7.45477 8.74127 7.53016 8.87224 7.68094C9.00322 7.83173 9.06871 8.01568 9.06871 8.23281C9.06871 8.44994 9.00322 8.6339 8.87224 8.78468C8.74127 8.93546 8.58148 9.01086 8.39288 9.01086ZM5.87816 11.9059C5.68955 11.9059 5.52976 11.8305 5.39879 11.6797C5.26781 11.529 5.20232 11.345 5.20232 11.1279C5.20232 10.9107 5.26781 10.7268 5.39879 10.576C5.52976 10.4252 5.68955 10.3498 5.87816 10.3498C6.06676 10.3498 6.22655 10.4252 6.35752 10.576C6.4885 10.7268 6.55399 10.9107 6.55399 11.1279C6.55399 11.345 6.4885 11.529 6.35752 11.6797C6.22655 11.8305 6.06676 11.9059 5.87816 11.9059ZM3.36344 11.9059C3.17483 11.9059 3.01504 11.8305 2.88407 11.6797C2.75309 11.529 2.68761 11.345 2.68761 11.1279C2.68761 10.9107 2.75309 10.7268 2.88407 10.576C3.01504 10.4252 3.17483 10.3498 3.36344 10.3498C3.55204 10.3498 3.71183 10.4252 3.84281 10.576C3.97378 10.7268 4.03927 10.9107 4.03927 11.1279C4.03927 11.345 3.97378 11.529 3.84281 11.6797C3.71183 11.8305 3.55204 11.9059 3.36344 11.9059ZM8.39288 11.9059C8.20427 11.9059 8.04448 11.8305 7.91351 11.6797C7.78253 11.529 7.71704 11.345 7.71704 11.1279C7.71704 10.9107 7.78253 10.7268 7.91351 10.576C8.04448 10.4252 8.20427 10.3498 8.39288 10.3498C8.58148 10.3498 8.74127 10.4252 8.87224 10.576C9.00322 10.7268 9.06871 10.9107 9.06871 11.1279C9.06871 11.345 9.00322 11.529 8.87224 11.6797C8.74127 11.8305 8.58148 11.9059 8.39288 11.9059ZM1.24164 15C0.906347 15 0.615582 14.8583 0.369349 14.5748C0.123116 14.2913 0 13.9566 0 13.5706V2.53317C0 2.1351 0.123116 1.79433 0.369349 1.51086C0.615582 1.22738 0.906347 1.08565 1.24164 1.08565H1.7685C1.99834 1.08565 2.18466 0.899322 2.18466 0.669481V0.669481C2.18466 0.500603 2.24229 0.346803 2.35755 0.208082C2.47281 0.0693607 2.60902 0 2.76619 0C2.93384 0 3.07529 0.0693607 3.19055 0.208082C3.30581 0.346803 3.36344 0.500603 3.36344 0.669481V0.669481C3.36344 0.899322 3.54976 1.08565 3.7796 1.08565H7.97671C8.20655 1.08565 8.39288 0.899322 8.39288 0.669481V0.669481C8.39288 0.500603 8.4505 0.346803 8.56576 0.208082C8.68102 0.0693607 8.82247 0 8.99012 0C9.14729 0 9.28351 0.0693607 9.39876 0.208082C9.51402 0.346803 9.57165 0.500603 9.57165 0.669481V0.669481C9.57165 0.899322 9.75797 1.08565 9.98781 1.08565H10.5147C10.8604 1.08565 11.1564 1.22738 11.4027 1.51086C11.6489 1.79433 11.772 2.1351 11.772 2.53317V13.5706C11.772 13.9566 11.6489 14.2913 11.4027 14.5748C11.1564 14.8583 10.8604 15 10.5147 15H1.24164ZM1.24164 9.72557C1.24164 11.8491 2.96311 13.5706 5.08664 13.5706H6.66968C8.79321 13.5706 10.5147 11.8491 10.5147 9.72557V9.72557C10.5147 7.60204 8.79321 5.88058 6.66968 5.88058H5.08663C2.9631 5.88058 1.24164 7.60204 1.24164 9.72557V9.72557ZM1.24164 3.66405C1.24164 4.28862 1.74796 4.79493 2.37252 4.79493H9.38379C10.0084 4.79493 10.5147 4.28862 10.5147 3.66405V3.66405C10.5147 3.03949 10.0084 2.53317 9.38379 2.53317H2.37252C1.74795 2.53317 1.24164 3.03949 1.24164 3.66405V3.66405Z" fill="currentColor" fill-opacity="0.5"/>
</svg>
