<svg width="16" height="16" viewBox="0 0 16 16" fill="none" xmlns="http://www.w3.org/2000/svg">
<g clip-path="url(#clip0_194_840)">
<g clip-path="url(#clip1_194_840)">
<path d="M3.11111 2.66672H10.2222V7.02228H11.1111V2.66672C11.1111 2.43097 11.0175 2.20488 10.8508 2.03818C10.6841 1.87148 10.458 1.77783 10.2222 1.77783H3.11111C2.87536 1.77783 2.64927 1.87148 2.48257 2.03818C2.31587 2.20488 2.22222 2.43097 2.22222 2.66672V13.3334C2.22222 13.5691 2.31587 13.7952 2.48257 13.9619C2.64927 14.1286 2.87536 14.2223 3.11111 14.2223H10.2222C10.458 14.2223 10.6841 14.1286 10.8508 13.9619C11.0175 13.7952 11.1111 13.5691 11.1111 13.3334H3.11111V2.66672Z" fill="currentColor"/>
<path d="M12.5156 7.68011C12.4305 7.6073 12.3212 7.56925 12.2093 7.57357C12.0975 7.57789 11.9913 7.62426 11.9122 7.70342C11.833 7.78257 11.7867 7.88868 11.7823 8.00053C11.778 8.11239 11.8161 8.22176 11.8889 8.30678L13.3911 9.77789H6.94666C6.82879 9.77789 6.71574 9.82471 6.6324 9.90806C6.54905 9.99141 6.50222 10.1045 6.50222 10.2223C6.50222 10.3402 6.54905 10.4533 6.6324 10.5366C6.71574 10.62 6.82879 10.6668 6.94666 10.6668H13.3911L11.8889 12.2046C11.8424 12.2444 11.8046 12.2934 11.7779 12.3486C11.7512 12.4037 11.7362 12.4638 11.7339 12.525C11.7315 12.5862 11.7418 12.6472 11.7642 12.7043C11.7865 12.7613 11.8204 12.8131 11.8637 12.8564C11.907 12.8997 11.9588 12.9336 12.0159 12.956C12.0729 12.9783 12.1339 12.9886 12.1951 12.9862C12.2563 12.9839 12.3164 12.9689 12.3715 12.9422C12.4267 12.9155 12.4757 12.8777 12.5156 12.8312L15.1111 10.2534L12.5156 7.68011Z" fill="currentColor"/>
</g>
</g>
<defs>
<clipPath id="clip0_194_840">
<rect width="16" height="16" fill="white"/>
</clipPath>
<clipPath id="clip1_194_840">
<rect width="16" height="16" fill="white"/>
</clipPath>
</defs>
</svg>
