<svg width="24" height="24" viewBox="0 0 24 24" fill="none" xmlns="http://www.w3.org/2000/svg">
<path d="M12.57 15.8C12.5271 15.7492 12.4765 15.7053 12.42 15.67L12.25 15.58L12.06 15.5C11.8985 15.4691 11.7319 15.4785 11.5749 15.5273C11.418 15.5762 11.2754 15.663 11.16 15.78C11.0665 15.8713 10.9917 15.98 10.94 16.1C10.8909 16.2241 10.8671 16.3567 10.87 16.49C10.8711 16.7524 10.9753 17.0038 11.16 17.19C11.2513 17.2836 11.36 17.3583 11.48 17.41C11.604 17.4591 11.7366 17.4829 11.87 17.48C12 17.4816 12.1291 17.4578 12.25 17.41C12.37 17.3583 12.4787 17.2836 12.57 17.19C12.7584 17.0054 12.8662 16.7538 12.87 16.49C12.8697 16.356 12.8425 16.2233 12.79 16.1C12.7392 15.9853 12.6641 15.883 12.57 15.8V15.8ZM11.87 8.50002C11.3431 8.49968 10.8253 8.63814 10.3689 8.90146C9.91248 9.16479 9.53347 9.54368 9.27 10C9.19765 10.1138 9.14906 10.2411 9.12717 10.3742C9.10529 10.5073 9.11054 10.6434 9.14263 10.7744C9.17472 10.9054 9.23297 11.0286 9.31388 11.1365C9.3948 11.2444 9.49671 11.3348 9.61347 11.4023C9.73024 11.4698 9.85945 11.5129 9.99333 11.5292C10.1272 11.5455 10.263 11.5345 10.3925 11.4969C10.5221 11.4593 10.6427 11.3959 10.747 11.3105C10.8514 11.2252 10.9375 11.1195 11 11C11.1092 10.8074 11.2792 10.6564 11.4834 10.5708C11.6876 10.4852 11.9144 10.4698 12.1283 10.527C12.3422 10.5842 12.5311 10.7107 12.6653 10.8868C12.7996 11.0629 12.8715 11.2786 12.87 11.5C12.87 11.7652 12.7646 12.0196 12.5771 12.2071C12.3896 12.3947 12.1352 12.5 11.87 12.5C11.6048 12.5 11.3504 12.6054 11.1629 12.7929C10.9754 12.9805 10.87 13.2348 10.87 13.5C10.87 13.7652 10.9754 14.0196 11.1629 14.2071C11.3504 14.3947 11.6048 14.5 11.87 14.5C12.6656 14.5 13.4287 14.184 13.9913 13.6213C14.5539 13.0587 14.87 12.2957 14.87 11.5C14.87 10.7044 14.5539 9.94131 13.9913 9.3787C13.4287 8.81609 12.6656 8.50002 11.87 8.50002ZM19 5.00002H12.72L12.4 4.00002C12.1926 3.41325 11.8077 2.90553 11.2989 2.54718C10.7901 2.18884 10.1824 1.99762 9.56 2.00002H5C4.20435 2.00002 3.44129 2.31609 2.87868 2.8787C2.31607 3.44131 2 4.20437 2 5.00002V18C2 18.7957 2.31607 19.5587 2.87868 20.1213C3.44129 20.684 4.20435 21 5 21H19C19.7956 21 20.5587 20.684 21.1213 20.1213C21.6839 19.5587 22 18.7957 22 18V8.00002C22 7.20437 21.6839 6.44131 21.1213 5.8787C20.5587 5.31609 19.7956 5.00002 19 5.00002ZM20 18C20 18.2652 19.8946 18.5196 19.7071 18.7071C19.5196 18.8947 19.2652 19 19 19H5C4.73478 19 4.48043 18.8947 4.29289 18.7071C4.10536 18.5196 4 18.2652 4 18V5.00002C4 4.73481 4.10536 4.48045 4.29289 4.29292C4.48043 4.10538 4.73478 4.00002 5 4.00002H9.56C9.76964 3.99948 9.97416 4.06484 10.1446 4.18686C10.3151 4.30889 10.4429 4.4814 10.51 4.68002L11.05 6.32002C11.1171 6.51864 11.2449 6.69116 11.4154 6.81318C11.5858 6.9352 11.7904 7.00056 12 7.00002H19C19.2652 7.00002 19.5196 7.10538 19.7071 7.29292C19.8946 7.48045 20 7.73481 20 8.00002V18Z" fill="currentColor"/>
</svg>
