<svg width="43" height="46" viewBox="0 0 43 46" fill="none" xmlns="http://www.w3.org/2000/svg">
<path d="M21.5 19.4162C20.6732 19.4162 19.8922 19.2171 19.2338 18.8649C19.0041 18.7424 18.7744 19.0027 18.9122 19.2171C19.4635 20.0593 20.4128 20.6258 21.5 20.6258C22.5872 20.6258 23.5366 20.0593 24.0878 19.2171C24.2257 19.0027 23.9807 18.7577 23.7663 18.8649C23.1078 19.2171 22.3422 19.4162 21.5 19.4162ZM15.6507 14.2099C15.8803 13.2605 16.7378 12.5562 17.7638 12.5562C18.8203 12.5562 19.7085 13.3065 19.9075 14.3171C19.9192 14.3693 19.9188 14.4234 19.9064 14.4755C19.894 14.5275 19.8699 14.576 19.8359 14.6173C19.802 14.6586 19.7591 14.6917 19.7105 14.7139C19.6619 14.7362 19.6088 14.7471 19.5553 14.7458H19.4328C19.4635 14.6233 19.4788 14.5008 19.4788 14.3783C19.4788 13.6127 18.8663 12.9849 18.0853 12.9849C17.871 12.9853 17.6597 13.035 17.4676 13.1301C17.2756 13.2252 17.1079 13.3631 16.9777 13.5333C16.8474 13.7035 16.7581 13.9014 16.7165 14.1116C16.6749 14.3219 16.6822 14.5389 16.7378 14.7458H16.0641C15.7885 14.7458 15.5894 14.4855 15.6507 14.2099Z" fill="currentColor"/>
<path d="M18.8816 14.363C18.8816 13.919 18.5294 13.5668 18.0853 13.5668C17.9782 13.5662 17.872 13.587 17.773 13.628C17.8103 13.661 17.8367 13.7045 17.8487 13.7528C17.8607 13.8011 17.8577 13.852 17.84 13.8985C17.8224 13.9451 17.791 13.9852 17.75 14.0134C17.7091 14.0417 17.6604 14.0568 17.6107 14.0568C17.5698 14.0567 17.5297 14.0464 17.4939 14.0269C17.458 14.0074 17.4277 13.9792 17.4055 13.945C17.3341 14.0627 17.2943 14.1969 17.29 14.3345C17.2857 14.4722 17.317 14.6086 17.381 14.7305H18.7897C18.851 14.6233 18.8816 14.5008 18.8816 14.363ZM27.3647 14.2099C27.135 13.2605 26.2775 12.5562 25.2516 12.5562C24.1797 12.5562 23.3069 13.3065 23.1078 14.3171C23.0619 14.5468 23.2303 14.7458 23.46 14.7458H23.5672C23.547 14.6476 23.5367 14.5476 23.5366 14.4472C23.5345 14.2637 23.5692 14.0816 23.6385 13.9116C23.7078 13.7416 23.8103 13.5872 23.9401 13.4574C24.0699 13.3276 24.2244 13.225 24.3944 13.1557C24.5643 13.0864 24.7465 13.0518 24.93 13.0538C25.1382 13.0544 25.3437 13.1015 25.5314 13.1916C25.7191 13.2818 25.8843 13.4127 26.0149 13.5749C26.1455 13.7371 26.2382 13.9263 26.2863 14.1289C26.3344 14.3315 26.3366 14.5423 26.2928 14.7458H26.9513C27.2269 14.7458 27.426 14.4855 27.3647 14.2099Z" fill="currentColor"/>
<path d="M24.639 13.6204C24.7902 13.5576 24.9572 13.5434 25.1168 13.5797C25.2764 13.6159 25.4208 13.7009 25.5301 13.8227C25.6394 13.9446 25.7081 14.0974 25.7267 14.26C25.7454 14.4226 25.7131 14.587 25.6343 14.7305H24.2256C24.1589 14.6041 24.1274 14.4621 24.1344 14.3193C24.1414 14.1765 24.1867 14.0383 24.2654 13.919C24.2815 13.9519 24.3049 13.9808 24.3337 14.0036C24.3625 14.0263 24.396 14.0423 24.4318 14.0503C24.4676 14.0584 24.5048 14.0582 24.5406 14.05C24.5763 14.0417 24.6098 14.0256 24.6384 14.0027C24.6671 13.9797 24.6902 13.9507 24.7062 13.9176C24.7221 13.8846 24.7304 13.8484 24.7305 13.8117C24.7305 13.775 24.7223 13.7387 24.7065 13.7056C24.6907 13.6725 24.6676 13.6434 24.639 13.6204Z" fill="currentColor"/>
<path d="M14.7548 2.41326C15.2187 1.67293 15.8634 1.06291 16.6283 0.640705C17.3932 0.218496 18.2529 -0.00199497 19.1266 1.36009e-05C19.8662 1.36009e-05 20.5399 0.153139 21.1509 0.407326L21.1784 0.418045C21.2798 0.462491 21.3893 0.485439 21.5 0.485439C21.6107 0.485439 21.7202 0.462491 21.8216 0.418045L21.8307 0.414982C22.4717 0.141427 23.1613 0.000276675 23.8581 1.36009e-05C25.7416 1.36009e-05 27.3647 1.01064 28.2819 2.48217L28.2911 2.49748C28.5621 2.94461 29.023 3.30904 29.5789 3.49279L29.5957 3.49892C30.2603 3.72861 30.8896 4.09611 31.4286 4.59376H41.9575C42.4934 4.59376 42.9069 5.02251 42.9069 5.54314V35.77C42.911 35.8952 42.8899 36.02 42.8448 36.1369C42.7997 36.2538 42.7315 36.3604 42.6444 36.4504C42.5572 36.5404 42.4529 36.6119 42.3375 36.6608C42.2221 36.7096 42.0981 36.7348 41.9728 36.7347H39.7158C39.8107 37.4927 39.8597 38.2629 39.8597 39.0469V42.875C39.8597 44.5625 38.4846 45.9375 36.7972 45.9375H4.65625C4.25014 45.9375 3.86066 45.7762 3.57349 45.489C3.28633 45.2019 3.125 44.8124 3.125 44.4063V39.0469C3.125 38.2629 3.174 37.4927 3.26894 36.7347H1.01187C0.49125 36.7347 0.0625 36.306 0.0625 35.7853V5.54314C0.0625 5.02251 0.49125 4.59376 1.01187 4.59376H11.5591C12.092 4.10376 12.7152 3.73167 13.3905 3.49892C13.9418 3.30751 14.4317 2.92164 14.7533 2.41326H14.7548ZM23.9607 23.713C25.0688 23.5043 26.0835 22.9531 26.8617 22.1373C27.64 21.3214 28.1426 20.2818 28.2987 19.1651L28.4182 17.2082C28.4297 17.0246 28.5069 16.8514 28.6357 16.7201C28.7645 16.5888 28.9362 16.5082 29.1195 16.4931C29.3032 16.4778 29.4839 16.4349 29.6524 16.366C29.7312 16.3177 29.8142 16.2767 29.9004 16.2435C30.1648 16.0852 30.3845 15.862 30.5386 15.5951C30.6927 15.3282 30.7761 15.0264 30.781 14.7182C30.7859 14.4101 30.7121 14.1058 30.5666 13.8341C30.4211 13.5624 30.2087 13.3324 29.9494 13.1657C29.8283 13.1232 29.7131 13.0656 29.6064 12.9942C29.5202 12.962 29.4316 12.9364 29.3415 12.9176C29.2688 12.9028 29.1987 12.8776 29.1333 12.8426C29.1282 12.8642 29.1256 12.8863 29.1256 12.9085V14.6081C29.1256 16.2313 27.8088 17.5328 26.2009 17.5328H25.1138C24.6898 17.5334 24.2708 17.4415 23.886 17.2635C23.5012 17.0855 23.1599 16.8257 22.8858 16.5023L23.0006 16.8744C23.1691 17.4103 22.7709 17.9616 22.2044 17.9616H21.01C20.4434 17.9616 20.0453 17.4103 20.2137 16.8744L20.3118 16.5574C19.7758 17.1561 18.9949 17.5328 18.1313 17.5328H17.0441C16.2684 17.5328 15.5245 17.2247 14.976 16.6762C14.4275 16.1277 14.1194 15.3838 14.1194 14.6081V12.9238C14.1175 12.8828 14.106 12.8429 14.0858 12.8072C14.0655 12.7716 14.0372 12.7412 14.003 12.7186C13.8922 12.8099 13.758 12.8683 13.6156 12.887C13.5302 12.8983 13.4458 12.9157 13.3629 12.9391C13.2111 13.0443 13.0415 13.1211 12.8622 13.1657C12.604 13.334 12.3931 13.5654 12.2494 13.838C12.1057 14.1106 12.034 14.4154 12.041 14.7235C12.0481 15.0315 12.1337 15.3327 12.2897 15.5985C12.4457 15.8642 12.667 16.0857 12.9327 16.242C13.0705 16.2818 13.1976 16.3385 13.3155 16.4104C13.487 16.464 13.6661 16.4916 13.8483 16.4916C14.0432 16.4912 14.2309 16.5651 14.3731 16.6982C14.5154 16.8314 14.6015 17.0138 14.614 17.2082L14.7457 19.2126C14.9085 20.3196 15.4126 21.3482 16.1877 22.1552C16.9629 22.9621 17.9704 23.5072 19.0699 23.7145H19.1112V23.7206C19.419 23.7773 19.7329 23.8048 20.0499 23.8064H22.9838C23.29 23.8064 23.5917 23.7788 23.8872 23.7267V23.713H23.9607ZM28.7551 11.4691L28.7811 10.8152C28.7927 10.4167 28.6472 10.0295 28.3759 9.7373C28.1046 9.44509 27.7293 9.27128 27.331 9.25336H25.1673C24.2851 9.25512 23.421 9.00277 22.6783 8.52649C21.9356 8.0502 21.3458 7.37012 20.9794 6.56754C20.958 6.51113 20.9204 6.46229 20.8714 6.42715C20.8224 6.39201 20.764 6.37213 20.7037 6.37001H18.6978C17.5105 6.37117 16.3717 6.84082 15.5287 7.67689C14.6858 8.51297 14.2068 9.64792 14.1959 10.8351L14.2388 11.4783C14.2701 11.4724 14.3019 11.4693 14.3337 11.4691H15.9324C15.8476 11.4179 15.7831 11.3389 15.7502 11.2455C15.7217 11.163 15.7197 11.0737 15.7444 10.99C15.7691 10.9062 15.8193 10.8323 15.888 10.7785C16.7346 10.1856 17.7723 9.93054 18.7973 10.0634C18.8789 10.0734 18.9557 10.1072 19.0182 10.1605C19.0807 10.2138 19.1262 10.2843 19.1491 10.3632C19.1719 10.4421 19.171 10.526 19.1466 10.6045C19.1222 10.6829 19.0753 10.7525 19.0117 10.8045C18.9689 10.8385 18.9198 10.8635 18.8672 10.8783C18.8147 10.893 18.7597 10.8971 18.7055 10.8903C17.8784 10.7871 17.0424 10.9933 16.3581 11.4691H19.6625C20.1219 11.4691 20.5506 11.6835 20.8416 12.0356C21.0253 12.2653 21.3009 12.4031 21.6225 12.4031C21.9441 12.4031 22.2197 12.2653 22.4034 12.0356C22.6944 11.6835 23.1231 11.4691 23.5825 11.4691H26.6634C25.9788 11.002 25.1482 10.7985 24.3252 10.8964C24.2169 10.9049 24.1095 10.8712 24.0256 10.8022C23.9417 10.7332 23.8878 10.6343 23.8753 10.5264C23.8628 10.4185 23.8927 10.3099 23.9586 10.2236C24.0245 10.1372 24.1213 10.0798 24.2287 10.0634C25.2536 9.93323 26.2903 10.188 27.1381 10.7785C27.1916 10.8207 27.234 10.8753 27.2617 10.9375C27.2894 10.9998 27.3016 11.0679 27.297 11.1359C27.2925 11.2039 27.2715 11.2698 27.2358 11.3278C27.2001 11.3859 27.1508 11.4344 27.0921 11.4691H28.7551ZM22.1891 14.256V13.6894C22.1836 13.5423 22.1216 13.403 22.0161 13.3003C21.9106 13.1977 21.7697 13.1396 21.6225 13.1381C21.3162 13.1381 21.0713 13.3678 21.0559 13.6741V14.1763C21.2856 13.6756 22.0283 13.7016 22.1891 14.256ZM19.2338 25.284C19.3911 25.7594 19.6941 26.1732 20.0997 26.4667C20.5054 26.7602 20.9932 26.9185 21.494 26.9191C21.9947 26.9198 22.4829 26.7628 22.8894 26.4704C23.2959 26.178 23.6 25.7651 23.7586 25.2901C23.5044 25.3208 23.2472 25.3361 22.9884 25.3376H20.0545C19.7789 25.3376 19.5033 25.3192 19.2322 25.284H19.2338ZM27.4443 24.8491L28.7306 27.6146C28.8684 27.8795 28.654 28.1857 28.3294 28.1857H26.7108C26.3403 28.1857 26.1703 28.5915 26.4184 28.8135L26.7323 29.0938H28.9113C29.6003 29.0938 30.1516 29.645 30.1516 30.3341V30.3861H30.1607V33.075H30.1822C31.447 33.075 32.4791 34.1071 32.4791 35.3719V42.875H36.7972V39.0469C36.7972 32.8453 33.1222 27.5105 27.8287 25.1003C27.6886 25.0363 27.5591 24.9517 27.4443 24.8491ZM30.1516 34.6078V36.2723C30.1605 36.3778 30.1474 36.4841 30.1131 36.5843C30.0788 36.6846 30.0241 36.7766 29.9524 36.8546C29.8807 36.9326 29.7937 36.9949 29.6967 37.0375C29.5997 37.0801 29.4949 37.1022 29.389 37.1022H25.4813C25.4309 37.1124 25.3796 37.1176 25.3281 37.1175C25.0877 37.1175 24.9193 37.3043 24.9147 37.4881V37.4973C24.9136 37.5632 24.9295 37.6282 24.9608 37.6862C24.9922 37.7441 25.038 37.793 25.0938 37.828C25.1993 37.8984 25.2855 37.9938 25.345 38.1058C25.4044 38.2177 25.4351 38.3426 25.4344 38.4694C25.4336 38.5961 25.4014 38.7207 25.3406 38.8319C25.2799 38.9431 25.1924 39.0375 25.0862 39.1066C25.0346 39.1399 24.992 39.1854 24.9621 39.2391C24.9322 39.2928 24.9159 39.353 24.9147 39.4144C24.9147 39.5522 24.979 39.6548 25.0724 39.713C25.182 39.7808 25.2727 39.8752 25.3361 39.9874C25.3995 40.0997 25.4336 40.2261 25.4351 40.355C25.4366 40.4839 25.4056 40.611 25.3449 40.7247C25.2841 40.8384 25.1957 40.935 25.0877 41.0054C25.0358 41.0385 24.9929 41.0839 24.9627 41.1376C24.9326 41.1913 24.9161 41.2516 24.9147 41.3131C24.9147 41.451 24.979 41.5535 25.0724 41.6117C25.1784 41.6773 25.2667 41.7678 25.3297 41.8752C25.3928 41.9827 25.4287 42.1039 25.4343 42.2284C25.4399 42.3529 25.415 42.4769 25.3618 42.5895C25.3086 42.7022 25.2287 42.8002 25.1291 42.875H30.9478V35.3719C30.9473 35.2689 30.9261 35.1671 30.8855 35.0724C30.8449 34.9778 30.7857 34.8922 30.7114 34.8208C30.6372 34.7495 30.5494 34.6937 30.4532 34.6568C30.3571 34.62 30.2545 34.6028 30.1516 34.6063V34.6078ZM28.6295 33.075V30.4106H15.5281C15.1748 30.4106 14.836 30.551 14.5861 30.8008C14.3363 31.0507 14.1959 31.3895 14.1959 31.7428C14.1959 32.0961 14.3363 32.435 14.5861 32.6848C14.836 32.9347 15.1748 33.075 15.5281 33.075H28.6295ZM24.6437 26.8581C24.2683 27.3671 23.7751 27.7776 23.2064 28.0543C22.6378 28.331 22.0105 28.4658 21.3783 28.4472C20.7461 28.4285 20.1279 28.2569 19.5766 27.9471C19.0252 27.6373 18.5571 27.1985 18.2124 26.6683V29.0938H24.6437V26.8581ZM16.4392 28.8151C16.6857 28.5915 16.5158 28.1873 16.1467 28.1873H14.5267C14.2036 28.1873 13.9877 27.8795 14.1255 27.6146L15.5909 24.8063C15.4636 24.9316 15.3154 25.0337 15.153 25.1079C12.4786 26.326 10.2112 28.288 8.62143 30.7596C7.03169 33.2313 6.18676 36.1081 6.1875 39.0469V42.875H10.5056V35.3719C10.5056 34.6981 10.8333 34.1209 11.2452 33.7289C11.6433 33.3522 12.1992 33.0735 12.7872 33.075V31.9725C12.7872 30.38 14.0734 29.0785 15.6812 29.0938H16.1253L16.4392 28.8151ZM12.7872 34.6063C12.6014 34.6226 12.4278 34.7059 12.2987 34.8405C12.2218 34.9071 12.159 34.9884 12.114 35.0797C12.069 35.171 12.0428 35.2703 12.0369 35.3719V42.875H17.8556C17.756 42.8002 17.6761 42.7022 17.6229 42.5895C17.5697 42.4769 17.5448 42.3529 17.5504 42.2284C17.556 42.1039 17.5919 41.9827 17.6549 41.8752C17.718 41.7678 17.8063 41.6773 17.9123 41.6117C17.9623 41.58 18.0032 41.5358 18.0308 41.4834C18.0585 41.431 18.072 41.3723 18.07 41.3131C18.0686 41.252 18.0522 41.1921 18.0223 41.1387C17.9924 41.0853 17.9499 41.0401 17.8985 41.0069C17.7901 40.9367 17.7013 40.8402 17.6402 40.7264C17.5791 40.6126 17.5478 40.4853 17.5492 40.3561C17.5505 40.227 17.5845 40.1003 17.648 39.9879C17.7115 39.8754 17.8024 39.7809 17.9123 39.713C17.9623 39.6813 18.0032 39.637 18.0308 39.5847C18.0585 39.5323 18.072 39.4736 18.07 39.4144C18.0686 39.3532 18.0522 39.2933 18.0223 39.24C17.9924 39.1866 17.9499 39.1413 17.8985 39.1081C17.7919 39.0391 17.7042 38.9446 17.6432 38.8333C17.5822 38.7219 17.5499 38.5971 17.5492 38.4701C17.5484 38.3432 17.5792 38.218 17.6389 38.1059C17.6985 37.9938 17.7851 37.8983 17.8908 37.828C17.9466 37.793 17.9925 37.7441 18.0238 37.6862C18.0552 37.6282 18.0711 37.5632 18.07 37.4973V37.4881C18.0654 37.3043 17.897 37.1175 17.6566 37.1175C17.6051 37.1176 17.5538 37.1124 17.5034 37.1022H13.5773C13.3795 37.1024 13.1892 37.0259 13.0465 36.8889C12.9037 36.7519 12.8196 36.5649 12.8117 36.3672H12.8025V34.6063H12.7872ZM9.94825 7.65626H3.125V33.6722H3.92278C5.29186 29.213 8.30166 25.4393 12.3447 23.1127C11.9266 22.2586 11.646 21.344 11.5132 20.4024C11.2654 19.9189 11.1008 19.3971 11.0262 18.8589C9.4705 18.1285 8.43231 16.5084 8.43231 14.6954C8.43231 13.0907 9.24541 11.636 10.5118 10.8168C9.99728 9.84837 9.80016 8.74279 9.94825 7.65626ZM39.0634 33.6722H39.8597V7.65626H33.0334C33.1922 8.7956 32.9675 9.95538 32.3948 10.953C32.9811 11.3845 33.4571 11.9484 33.7842 12.5988C34.1112 13.2491 34.28 13.9675 34.2767 14.6954C34.2817 15.5103 34.0701 16.3119 33.6636 17.0181C33.257 17.7244 32.6702 18.31 31.963 18.715C31.9005 19.3132 31.7276 19.8947 31.4531 20.43C31.3198 21.3576 31.0435 22.259 30.6339 23.102C34.6827 25.4287 37.696 29.2072 39.0634 33.6722ZM18.0088 16.9816C19.4022 16.9816 20.5353 15.8484 20.5353 14.455H20.52V13.3525C20.52 12.6022 19.9228 12.005 19.1725 12.005H15.9875C15.2372 12.005 14.64 12.6022 14.64 13.3525V14.455C14.64 15.8484 15.7731 16.9816 17.1666 16.9816H18.0088ZM26.0938 16.9816C27.4872 16.9816 28.6203 15.8484 28.6203 14.455V13.3525C28.6203 12.6022 28.0231 12.005 27.2728 12.005H24.0725C23.3222 12.005 22.725 12.6022 22.725 13.3525V14.455C22.725 15.8484 23.8581 16.9816 25.2516 16.9816H26.0938Z" fill="currentColor"/>
</svg>
