<svg width="36" height="46" viewBox="0 0 36 46" fill="none" xmlns="http://www.w3.org/2000/svg">
<path d="M18.2113 19.0885C17.3657 19.0885 16.5671 18.8849 15.8938 18.5248C15.6589 18.3995 15.424 18.6657 15.565 18.8849C16.1287 19.7462 17.0995 20.3256 18.2113 20.3256C19.3231 20.3256 20.294 19.7462 20.8577 18.8849C20.9986 18.6657 20.7481 18.4152 20.5289 18.5248C19.8555 18.8849 19.0726 19.0885 18.2113 19.0885ZM16.896 16.4734L17.7259 13.7958C17.8982 13.2164 18.7437 13.2164 18.916 13.7958L19.7459 16.4734C19.9182 17.0215 19.511 17.5852 18.9316 17.5852H17.7102C17.1309 17.5852 16.7237 17.0215 16.896 16.4734V16.4734ZM14.3811 12.0576C13.332 12.0576 12.4551 12.7779 12.2045 13.7488C12.1419 14.0306 12.3611 14.2969 12.643 14.2969H13.3414C13.2845 14.0852 13.277 13.8633 13.3196 13.6483C13.3621 13.4333 13.4535 13.231 13.5867 13.0569C13.7198 12.8829 13.8913 12.7418 14.0877 12.6445C14.2841 12.5473 14.5002 12.4965 14.7194 12.4961C14.9383 12.4971 15.1541 12.5483 15.3502 12.6457C15.5463 12.7432 15.7175 12.8842 15.8505 13.0581C15.9836 13.232 16.075 13.4341 16.1178 13.6488C16.1606 13.8636 16.1536 14.0852 16.0974 14.2969H16.2132C16.4481 14.2969 16.6204 14.0933 16.5734 13.8584C16.3698 12.8406 15.4616 12.0576 14.3811 12.0576ZM22.0384 12.0576C23.0875 12.0576 23.9644 12.7779 24.215 13.7488C24.2776 14.0306 24.0741 14.2969 23.7922 14.2969H23.0969C23.1538 14.0852 23.1613 13.8633 23.1188 13.6483C23.0762 13.4333 22.9848 13.231 22.8517 13.0569C22.7185 12.8829 22.5471 12.7418 22.3506 12.6445C22.1542 12.5473 21.9381 12.4965 21.7189 12.4961C21.5312 12.494 21.345 12.5294 21.1712 12.6003C20.9973 12.6711 20.8394 12.776 20.7067 12.9088C20.5739 13.0415 20.469 13.1994 20.3982 13.3733C20.3273 13.5471 20.2919 13.7333 20.294 13.921C20.294 14.0463 20.3096 14.1716 20.341 14.2969H20.2219C20.1673 14.2982 20.113 14.287 20.0633 14.2642C20.0136 14.2415 19.9697 14.2077 19.935 14.1654C19.9003 14.1231 19.8757 14.0735 19.863 14.0203C19.8503 13.9672 19.8499 13.9118 19.8618 13.8584C20.0497 12.8406 20.9423 12.0576 22.0384 12.0576V12.0576Z" fill="currentColor"/>
<path d="M14.7194 13.1064C14.8598 13.105 14.9982 13.1402 15.1209 13.2085C15.2436 13.2768 15.3463 13.3759 15.419 13.496C15.4917 13.6162 15.5319 13.7532 15.5355 13.8935C15.5391 14.0339 15.5061 14.1728 15.4397 14.2965H13.9991C13.9337 14.1718 13.9017 14.0323 13.9061 13.8916C13.9105 13.7508 13.9511 13.6136 14.0242 13.4932C14.0436 13.5233 14.0692 13.5489 14.0994 13.5682C14.1295 13.5876 14.1635 13.6002 14.199 13.6053C14.2344 13.6104 14.2706 13.6079 14.3049 13.5978C14.3393 13.5878 14.3712 13.5705 14.3983 13.5471C14.4254 13.5237 14.4472 13.4947 14.4622 13.4622C14.4772 13.4297 14.485 13.3943 14.4852 13.3585C14.4853 13.3226 14.4778 13.2872 14.4631 13.2545C14.4484 13.2219 14.4269 13.1927 14.4 13.1691C14.5012 13.1272 14.6098 13.1059 14.7194 13.1064V13.1064ZM21.719 13.1064C21.6173 13.1062 21.5164 13.1248 21.4215 13.1613C21.4504 13.1848 21.4737 13.2146 21.4896 13.2484C21.5056 13.2821 21.5138 13.319 21.5137 13.3563C21.5135 13.3937 21.505 13.4305 21.4888 13.4641C21.4726 13.4978 21.4491 13.5274 21.42 13.5508C21.3909 13.5741 21.3569 13.5907 21.3206 13.5993C21.2843 13.6078 21.2465 13.6082 21.21 13.6003C21.1735 13.5924 21.1393 13.5764 21.1097 13.5535C21.0802 13.5307 21.0562 13.5015 21.0394 13.4682C20.959 13.5899 20.9128 13.7311 20.9056 13.8768C20.8985 14.0225 20.9306 14.1675 20.9987 14.2965H22.4393C22.5057 14.1728 22.5387 14.0339 22.5351 13.8935C22.5315 13.7532 22.4913 13.6162 22.4186 13.496C22.3459 13.3759 22.2431 13.2768 22.1204 13.2085C21.9978 13.1402 21.8594 13.105 21.719 13.1064V13.1064ZM12.737 11.0019C12.648 11.0016 12.5612 10.9736 12.4888 10.9219C12.4164 10.8701 12.3619 10.7971 12.3328 10.713C12.3037 10.6288 12.3015 10.5377 12.3265 10.4523C12.3515 10.3669 12.4025 10.2913 12.4723 10.2362C13.3382 9.62985 14.3993 9.36903 15.4476 9.50488C15.5306 9.51544 15.6087 9.55006 15.6723 9.60446C15.7359 9.65886 15.7822 9.73068 15.8055 9.81106C15.8288 9.89145 15.8281 9.9769 15.8034 10.0569C15.7788 10.1369 15.7313 10.2079 15.6668 10.2612C15.6231 10.2961 15.5729 10.322 15.5192 10.3373C15.4654 10.3527 15.4091 10.3571 15.3536 10.3505C14.5293 10.2474 13.6954 10.4448 13.0048 10.9064C12.9289 10.9677 12.8345 11.0014 12.737 11.0019V11.0019ZM23.7124 11.0019C23.6184 11.0019 23.5245 10.9706 23.4509 10.9126C22.7583 10.4554 21.9261 10.2585 21.102 10.3567C20.9913 10.3655 20.8815 10.3309 20.7957 10.2604C20.7099 10.1898 20.6548 10.0887 20.642 9.97837C20.6292 9.86802 20.6597 9.75702 20.7271 9.66871C20.7945 9.5804 20.8935 9.52168 21.0034 9.50488C22.0514 9.37178 23.1116 9.63236 23.9786 10.2362C24.0485 10.2914 24.0995 10.3671 24.1245 10.4527C24.1494 10.5383 24.1471 10.6295 24.1178 10.7137C24.0886 10.7979 24.0338 10.8709 23.9611 10.9226C23.8885 10.9742 23.8015 11.0019 23.7124 11.0019V11.0019Z" fill="currentColor"/>
<path d="M5.69987 0C4.57869 0 3.66421 0.914484 3.66421 2.03567C3.66421 3.15685 4.57869 4.07133 5.69987 4.07133H8.59052L8.19905 4.8856C7.99548 5.12362 7.81383 5.38669 7.65881 5.66855L7.65411 5.67794C7.26878 6.41093 7.09121 7.23532 7.14062 8.06194C7.19002 8.88856 7.46452 9.68594 7.93441 10.3678L7.93754 10.3741C8.12545 10.6434 8.2194 10.9566 8.2194 11.3058V11.7286C7.87303 12.0474 7.59673 12.4348 7.40803 12.8661C7.21933 13.2974 7.12236 13.7632 7.12327 14.234C7.12327 15.2237 7.54763 16.1131 8.2194 16.7332V17.8356C8.2194 19.5643 9.27951 21.1161 10.8814 21.7394C11.0271 21.9742 11.1836 22.1966 11.3528 22.4096C9.69105 23.0718 8.13731 23.9779 6.74276 25.0982C6.6537 25.1291 6.57095 25.1757 6.49848 25.236C3.68176 27.5866 1.64772 30.7392 0.667079 34.2744C0.223085 35.8606 -0.00136197 37.5002 6.21743e-06 39.1474V44.6281C6.21743e-06 44.8357 0.0824954 45.0349 0.229327 45.1817C0.376158 45.3285 0.575304 45.411 0.782955 45.411H35.217C35.4247 45.411 35.6238 45.3285 35.7707 45.1817C35.9175 45.0349 36 44.8357 36 44.6281V39.1255C36.0027 36.5901 35.4678 34.083 34.4305 31.7695C33.3932 29.456 31.8771 27.3888 29.9822 25.7042C28.5411 24.4168 26.902 23.3699 25.128 22.6037C25.4004 22.2859 25.6447 21.9429 25.8561 21.5781C26.5478 21.2277 27.1288 20.6925 27.5346 20.0318C27.9404 19.3712 28.1551 18.6109 28.1548 17.8356V16.7473C28.5053 16.4279 28.7853 16.039 28.9769 15.6053C29.1685 15.1716 29.2674 14.7027 29.2674 14.2285C29.2674 13.7544 29.1685 13.2855 28.9769 12.8518C28.7853 12.4181 28.5053 12.0291 28.1548 11.7098V11.3058C28.1548 10.9879 28.2582 10.6591 28.4524 10.3772C29.0286 9.56915 29.3192 8.59219 29.2784 7.60057C29.2375 6.60896 28.8676 5.6592 28.2269 4.90126L27.826 4.07133H29.9243V15.5368C29.5285 15.8866 29.2768 16.3709 29.218 16.8959C29.1593 17.4208 29.2977 17.9488 29.6064 18.3774C29.472 18.5674 29.3689 18.7779 29.3011 19.0006L29.2948 19.0225L28.3866 22.3219C28.3284 22.5258 28.3184 22.7405 28.3573 22.949C28.3962 23.1575 28.483 23.3541 28.6108 23.5234C28.7386 23.6926 28.904 23.8299 29.0939 23.9244C29.2838 24.0189 29.493 24.068 29.7051 24.0678H32.9465C33.8563 24.0678 34.5124 23.1972 34.265 22.3234L33.3724 19.0257C33.3041 18.7959 33.1983 18.5789 33.0592 18.3836C33.3702 17.9544 33.5099 17.4247 33.4511 16.898C33.3924 16.3712 33.1393 15.8854 32.7414 15.5353V2.03567C32.7419 1.96917 32.734 1.90287 32.7179 1.83836C32.6678 1.33538 32.4329 0.868878 32.0585 0.52924C31.6842 0.189602 31.1971 0.00100817 30.6916 0H5.69987ZM27.0415 15.6418C26.7535 15.8818 26.3988 16.0277 26.0252 16.0598L25.3488 16.1162L25.1922 18.7782C25.0165 20.0804 24.3749 21.2747 23.3862 22.1402C22.3976 23.0056 21.1288 23.4835 19.8149 23.4853H16.8397C15.534 23.485 14.2721 23.0139 13.2856 22.1586C12.2991 21.3032 11.654 20.1208 11.4686 18.8284L11.2619 16.0614H10.5291C10.0631 16.0607 9.61491 15.8824 9.27572 15.5629C8.93653 15.2434 8.73184 14.8066 8.7033 14.3415C8.67477 13.8764 8.82454 13.4179 9.12213 13.0593C9.41972 12.7007 9.84277 12.469 10.3052 12.4113L11.0411 12.322L10.9049 10.3052C10.9181 9.13911 11.3763 8.02215 12.1858 7.18277L15.6809 7.75432H15.6919C16.8976 7.93284 18.119 7.97981 19.3357 7.89369C20.1223 8.44965 21.0611 8.74982 22.0244 8.75337H24.2166C24.619 8.77169 24.998 8.94746 25.2719 9.24275C25.5458 9.53805 25.6926 9.92919 25.6807 10.3318L25.5883 12.3033L26.2491 12.4426C26.5821 12.5136 26.8887 12.6759 27.1346 12.9115C27.3804 13.147 27.5558 13.4463 27.641 13.7759C27.7262 14.1055 27.7178 14.4524 27.6169 14.7775C27.516 15.1026 27.3265 15.3932 27.0697 15.6167L27.0415 15.6418V15.6418ZM10.9613 36.3915C10.9613 35.953 11.3058 35.6085 11.7442 35.6085C12.1827 35.6085 12.5272 35.953 12.5272 36.3915V43.8451H10.9613V36.3915V36.3915ZM17.2249 36.3915C17.2249 35.953 17.5694 35.6085 18.0078 35.6085C18.4463 35.6085 18.7908 35.953 18.7908 36.3915V43.8451H17.2249V36.3915V36.3915ZM23.4885 36.3915C23.4885 35.953 23.833 35.6085 24.2714 35.6085C24.7099 35.6085 25.0544 35.953 25.0544 36.3915V43.8451H23.4885V36.3915V36.3915ZM16.5515 26.2758C16.1164 25.8825 15.7478 25.4214 15.4601 24.9103C15.9111 25.0027 16.373 25.0512 16.8397 25.0512H19.8149C20.0357 25.0512 20.2565 25.0387 20.4725 25.0183C20.1972 25.4872 19.8518 25.9112 19.4485 26.2758L18.4306 27.184C18.1801 27.4032 17.8199 27.4032 17.5694 27.184L16.5515 26.2758V26.2758ZM31.0674 16.6361C31.172 16.5819 31.263 16.5048 31.3336 16.4106C31.4043 16.5048 31.4953 16.5819 31.5998 16.6361C31.6941 16.6862 31.7722 16.762 31.825 16.8547C31.8779 16.9474 31.9033 17.0533 31.8984 17.1599C31.8935 17.2665 31.8584 17.3695 31.7972 17.457C31.736 17.5444 31.6513 17.6127 31.5528 17.6539C31.4728 17.6864 31.3988 17.7319 31.3336 17.7886C31.2695 17.7317 31.1965 17.6856 31.1175 17.6524C31.0193 17.6113 30.9347 17.5433 30.8736 17.4561C30.8124 17.369 30.7772 17.2664 30.7719 17.16C30.7667 17.0537 30.7917 16.9481 30.844 16.8554C30.8962 16.7626 30.9737 16.6866 31.0674 16.6361ZM31.1144 19.0993C31.1938 19.0666 31.2674 19.0211 31.332 18.9646C31.3953 19.0207 31.4672 19.0662 31.545 19.0993C31.6906 19.1603 31.8112 19.2872 31.8676 19.4516L32.6912 22.5019H29.9619L30.8012 19.4484C30.8247 19.3709 30.8649 19.2994 30.919 19.2391C30.9732 19.1788 31.0398 19.131 31.1144 19.0993V19.0993Z" fill="currentColor"/>
</svg>
