<svg width="20" height="21" viewBox="0 0 20 21" fill="none" xmlns="http://www.w3.org/2000/svg">
<path d="M15.5556 0.5H2.22222C0.988889 0.5 0 1.5 0 2.72222V18.2778C0 19.5 0.988889 20.5 2.22222 20.5H17.7778C19 20.5 20 19.5 20 18.2778V4.94444L15.5556 0.5ZM10 18.2778C8.15556 18.2778 6.66667 16.7889 6.66667 14.9444C6.66667 13.1 8.15556 11.6111 10 11.6111C11.8444 11.6111 13.3333 13.1 13.3333 14.9444C13.3333 16.7889 11.8444 18.2778 10 18.2778ZM13.3333 7.16667H2.22222V2.72222H13.3333V7.16667Z" fill="white"/>
</svg>
