<svg width="15" height="16" viewBox="0 0 15 16" fill="none" xmlns="http://www.w3.org/2000/svg">
<path d="M0.196877 6.00117L1.34824 6.98555C1.29375 7.31953 1.26563 7.66055 1.26563 8.00156C1.26563 8.34258 1.29375 8.68359 1.34824 9.01758L0.196877 10.002C0.110034 10.0763 0.0478781 10.1753 0.0186765 10.2858C-0.0105251 10.3964 -0.0053889 10.5132 0.0334008 10.6207L0.0492204 10.6664C0.366191 11.5523 0.840828 12.3735 1.4502 13.0904L1.48184 13.1273C1.55576 13.2143 1.65429 13.2767 1.76443 13.3066C1.87457 13.3364 1.99116 13.3321 2.09883 13.2943L3.52793 12.7863C4.05528 13.2188 4.64414 13.5598 5.28047 13.7988L5.55645 15.293C5.57727 15.4054 5.63181 15.5088 5.71281 15.5895C5.79382 15.6702 5.89746 15.7243 6.00996 15.7447L6.05742 15.7535C6.97324 15.9187 7.93653 15.9187 8.85235 15.7535L8.89981 15.7447C9.01231 15.7243 9.11595 15.6702 9.19696 15.5895C9.27796 15.5088 9.3325 15.4054 9.35332 15.293L9.63106 13.7918C10.2623 13.5527 10.8502 13.2119 11.3713 12.7828L12.8109 13.2943C12.9186 13.3324 13.0353 13.3368 13.1455 13.307C13.2557 13.2772 13.3542 13.2145 13.4279 13.1273L13.4596 13.0904C14.0682 12.373 14.5428 11.5519 14.8605 10.6664L14.8764 10.6207C14.9555 10.401 14.8904 10.1549 14.7129 10.002L13.5475 9.00703C13.602 8.67656 13.6283 8.33906 13.6283 8.00332C13.6283 7.66582 13.602 7.32832 13.5475 6.99961L14.7129 6.00469C14.7997 5.93034 14.8619 5.83133 14.8911 5.7208C14.9203 5.61027 14.9152 5.49347 14.8764 5.38594L14.8605 5.34024C14.5424 4.4543 14.0713 3.63691 13.4596 2.91621L13.4279 2.8793C13.354 2.79238 13.2555 2.7299 13.1453 2.70008C13.0352 2.67027 12.9186 2.67454 12.8109 2.71231L11.3713 3.22383C10.8475 2.79316 10.2621 2.45215 9.63106 2.21485L9.35332 0.713673C9.3325 0.601247 9.27796 0.497818 9.19696 0.417126C9.11595 0.336434 9.01231 0.2823 8.89981 0.261915L8.85235 0.253126C7.92811 0.0870064 6.98166 0.0870064 6.05742 0.253126L6.00996 0.261915C5.89746 0.2823 5.79382 0.336434 5.71281 0.417126C5.63181 0.497818 5.57727 0.601247 5.55645 0.713673L5.28047 2.20781C4.6444 2.44625 4.05221 2.78838 3.52793 3.22031L2.09883 2.71231C1.99119 2.67424 1.87452 2.66982 1.76431 2.69965C1.6541 2.72948 1.55558 2.79214 1.48184 2.8793L1.4502 2.91621C0.838478 3.63867 0.367385 4.4543 0.0492204 5.34024L0.0334008 5.38594C-0.0457008 5.60215 0.0193381 5.84824 0.196877 6.00117V6.00117ZM2.59629 8.81016C2.55235 8.54473 2.52949 8.27227 2.52949 7.99981C2.52949 7.72734 2.55235 7.45488 2.59629 7.18945L2.71231 6.48457L1.39922 5.36133C1.59828 4.90273 1.84955 4.46862 2.14805 4.06758L3.7793 4.6459L4.33125 4.19238C4.75137 3.84785 5.21895 3.57715 5.7252 3.38731L6.39492 3.13594L6.70957 1.43086C7.20603 1.37461 7.70725 1.37461 8.20371 1.43086L8.51836 3.13945L9.18281 3.39434C9.68379 3.58418 10.1496 3.85488 10.5662 4.19766L11.1182 4.65293L12.76 4.06934C13.0588 4.47188 13.3084 4.90606 13.5088 5.36309L12.1816 6.49688L12.2959 7.2C12.3381 7.46192 12.3609 7.73262 12.3609 7.99981C12.3609 8.26875 12.3398 8.5377 12.2959 8.79961L12.1816 9.50274L13.5088 10.6365C13.3102 11.0953 13.0588 11.5277 12.76 11.9303L11.1182 11.3467L10.5662 11.802C10.1496 12.1447 9.68379 12.4154 9.18281 12.6053L8.5166 12.8566L8.20196 14.5652C7.70801 14.6215 7.20352 14.6215 6.70781 14.5652L6.39317 12.8602L5.72344 12.6088C5.21895 12.4189 4.74961 12.1482 4.32949 11.8037L3.77754 11.3502L2.14629 11.9285C1.84746 11.526 1.59785 11.0918 1.39746 10.6348L2.71055 9.51152L2.59629 8.81016ZM7.45313 11.2693C9.16172 11.2693 10.5469 9.88418 10.5469 8.17559C10.5469 6.46699 9.16172 5.08184 7.45313 5.08184C5.74453 5.08184 4.35938 6.46699 4.35938 8.17559C4.35938 9.88418 5.74453 11.2693 7.45313 11.2693ZM6.06094 6.7834C6.24354 6.60028 6.46054 6.45506 6.69947 6.35611C6.93839 6.25717 7.19452 6.20643 7.45313 6.20684C7.97871 6.20684 8.47266 6.4125 8.84531 6.7834C9.02844 6.966 9.17365 7.183 9.2726 7.42193C9.37155 7.66085 9.42228 7.91698 9.42188 8.17559C9.42188 8.70117 9.21621 9.19512 8.84531 9.56777C8.47266 9.94043 7.97871 10.1443 7.45313 10.1443C6.92754 10.1443 6.4336 9.94043 6.06094 9.56777C5.87782 9.38518 5.7326 9.16817 5.63365 8.92925C5.53471 8.69032 5.48397 8.43419 5.48438 8.17559C5.48438 7.65 5.69004 7.15605 6.06094 6.7834Z" fill="currentColor"/>
</svg>
