<svg width="32" height="36" viewBox="0 0 32 36" fill="none" xmlns="http://www.w3.org/2000/svg">
<g filter="url(#filter0_d_111_1517)">
<rect opacity="0.2" x="4" width="23.9234" height="27.5417" rx="6" fill="currentColor"/>
<path d="M20.7975 17.7106C18.8311 15.4521 18.8311 12.0894 20.7975 9.83086L21.6535 8.84765C21.8412 8.63156 21.9467 8.33848 21.9467 8.03288C21.9467 7.72728 21.8412 7.4342 21.6535 7.21811C21.4658 7.00201 21.2112 6.88062 20.9458 6.88062C20.6803 6.88062 20.4257 7.00201 20.238 7.21811C17.9817 9.82181 13.9418 9.82181 11.6854 7.21811C11.4977 7.00201 11.2431 6.88062 10.9777 6.88062C10.7122 6.88062 10.4577 7.00201 10.27 7.21811C10.0822 7.4342 9.9768 7.72728 9.9768 8.03288C9.9768 8.33848 10.0822 8.63156 10.27 8.84765L11.126 9.83086C13.0924 12.0894 13.0924 15.4521 11.126 17.7106L10.27 18.6938C10.1765 18.8005 10.1024 18.9274 10.0518 19.0672C10.0012 19.2071 9.9751 19.3571 9.9751 19.5086C9.9751 19.6601 10.0012 19.8101 10.0518 19.9499C10.1024 20.0897 10.1765 20.2167 10.27 20.3233C10.3626 20.4309 10.4729 20.5163 10.5943 20.5745C10.7158 20.6328 10.8461 20.6628 10.9777 20.6628C11.1093 20.6628 11.2396 20.6328 11.361 20.5745C11.4825 20.5163 11.5928 20.4309 11.6854 20.3233C13.9418 17.7196 17.9817 17.7196 20.238 20.3233C20.3307 20.4309 20.441 20.5163 20.5624 20.5745C20.6839 20.6328 20.8142 20.6628 20.9458 20.6628C21.0774 20.6628 21.2077 20.6328 21.3291 20.5745C21.4506 20.5163 21.5608 20.4309 21.6535 20.3233C21.7469 20.2167 21.8211 20.0897 21.8717 19.9499C21.9223 19.8101 21.9484 19.6601 21.9484 19.5086C21.9484 19.3571 21.9223 19.2071 21.8717 19.0672C21.8211 18.9274 21.7469 18.8005 21.6535 18.6938L20.7975 17.7106Z" fill="black"/>
</g>
<defs>
<filter id="filter0_d_111_1517" x="0" y="0" width="31.9235" height="35.5417" filterUnits="userSpaceOnUse" color-interpolation-filters="sRGB">
<feFlood flood-opacity="0" result="BackgroundImageFix"/>
<feColorMatrix in="SourceAlpha" type="matrix" values="0 0 0 0 0 0 0 0 0 0 0 0 0 0 0 0 0 0 127 0" result="hardAlpha"/>
<feOffset dy="4"/>
<feGaussianBlur stdDeviation="2"/>
<feComposite in2="hardAlpha" operator="out"/>
<feColorMatrix type="matrix" values="0 0 0 0 0 0 0 0 0 0 0 0 0 0 0 0 0 0 0.25 0"/>
<feBlend mode="normal" in2="BackgroundImageFix" result="effect1_dropShadow_111_1517"/>
<feBlend mode="normal" in="SourceGraphic" in2="effect1_dropShadow_111_1517" result="shape"/>
</filter>
</defs>
</svg>
