<svg width="27" height="27" viewBox="0 0 27 27" fill="none" xmlns="http://www.w3.org/2000/svg">
<path d="M18.5333 6.08405L20.916 8.46567M20.0655 3.98592L13.6226 10.4288C13.2897 10.7612 13.0627 11.1848 12.9701 11.646L12.375 14.625L15.354 14.0288C15.8152 13.9366 16.2382 13.7104 16.5712 13.3774L23.0141 6.93455C23.2077 6.74094 23.3613 6.51109 23.4661 6.25813C23.5709 6.00517 23.6248 5.73404 23.6248 5.46024C23.6248 5.18643 23.5709 4.91531 23.4661 4.66234C23.3613 4.40938 23.2077 4.17953 23.0141 3.98592C22.8205 3.79231 22.5907 3.63874 22.3377 3.53395C22.0847 3.42917 21.8136 3.37524 21.5398 3.37524C21.266 3.37524 20.9949 3.42917 20.7419 3.53395C20.489 3.63874 20.2591 3.79231 20.0655 3.98592V3.98592Z" stroke="currentColor" stroke-width="2" stroke-linecap="round" stroke-linejoin="round"/>
<path d="M21.375 16.875V20.25C21.375 20.8467 21.1379 21.419 20.716 21.841C20.294 22.2629 19.7217 22.5 19.125 22.5H6.75C6.15326 22.5 5.58097 22.2629 5.15901 21.841C4.73705 21.419 4.5 20.8467 4.5 20.25V7.875C4.5 7.27826 4.73705 6.70597 5.15901 6.28401C5.58097 5.86205 6.15326 5.625 6.75 5.625H10.125" stroke="currentColor" stroke-width="2" stroke-linecap="round" stroke-linejoin="round"/>
</svg>
